<svg width="56" height="30" viewBox="0 0 56 30" fill="none" xmlns="http://www.w3.org/2000/svg">
<path d="M8.32679 10.2912C8.45371 10.4385 8.52523 10.6255 8.52902 10.8198C8.52902 11.2241 8.25451 11.4382 7.89856 11.4382C7.76983 11.436 7.64315 11.4056 7.52742 11.3492C7.4117 11.2928 7.30976 11.2117 7.22875 11.1116C7.14288 11.0103 7.03611 10.9288 6.91576 10.8726C6.79542 10.8164 6.66433 10.7868 6.5315 10.786C6.17098 10.786 5.94679 10.9689 5.94679 11.2241C5.94679 11.3366 5.96875 11.5617 6.44183 11.697L7.1281 11.8882C7.98274 12.1471 8.7596 12.5742 8.7596 13.5978C8.7596 14.8683 7.58928 15.4646 6.41895 15.4646C5.38405 15.4646 4.8213 15.0265 4.50653 14.7C4.43882 14.6323 4.15699 14.3066 4.15699 13.9234C4.15365 13.8403 4.16776 13.7574 4.19843 13.6801C4.22909 13.6027 4.27562 13.5327 4.33501 13.4744C4.39441 13.4162 4.46536 13.371 4.54328 13.3418C4.62121 13.3127 4.70438 13.3001 4.78745 13.3051C5.11411 13.3051 5.30536 13.5072 5.45085 13.6764C5.78849 14.0588 6.10418 14.1338 6.41895 14.1338C6.91398 14.1338 7.1281 13.9088 7.1281 13.6837C7.1281 13.5712 7.08326 13.3243 6.55438 13.1669L5.96875 12.984C4.8213 12.6575 4.33725 12.0391 4.33725 11.2287C4.33725 10.0478 5.4179 9.48531 6.47477 9.48531C7.2132 9.49171 7.96078 9.77344 8.32679 10.2912Z" fill="#A55954"/>
<path d="M15.4494 12.2367V14.6551C15.4494 14.8735 15.3626 15.0829 15.2082 15.2372C15.0538 15.3916 14.8443 15.4784 14.6259 15.4784C14.4075 15.4784 14.198 15.3916 14.0436 15.2372C13.8891 15.0829 13.8024 14.8735 13.8024 14.6551V12.2367C13.8024 11.3028 13.3448 10.8985 12.7217 10.8985C11.7545 10.8985 11.4837 11.8434 11.4617 12.0565V14.6551C11.4617 14.8735 11.3749 15.0829 11.2205 15.2372C11.066 15.3916 10.8566 15.4784 10.6382 15.4784C10.4198 15.4784 10.2103 15.3916 10.0558 15.2372C9.9014 15.0829 9.81464 14.8735 9.81464 14.6551V8.19834C9.81464 7.98001 9.9014 7.77062 10.0558 7.61624C10.2103 7.46185 10.4198 7.37512 10.6382 7.37512C10.8566 7.37512 11.066 7.46185 11.2205 7.61624C11.3749 7.77062 11.4617 7.98001 11.4617 8.19834V10.808C11.5065 10.3918 12.148 9.50361 13.3403 9.50361C14.4932 9.50361 15.4494 10.2793 15.4494 12.2367Z" fill="#A55954"/>
<path d="M22.5043 10.336V14.6661C22.4981 14.8829 22.4077 15.0887 22.2523 15.24C22.0968 15.3913 21.8886 15.4761 21.6716 15.4765C21.4566 15.4787 21.2495 15.396 21.0953 15.2463C20.941 15.0965 20.8522 14.892 20.8481 14.6771C20.7136 14.9927 20.1728 15.4875 19.2843 15.4875C18.0463 15.4875 16.5722 14.5317 16.5722 12.4837C16.5722 10.4823 18.0573 9.49171 19.2843 9.49171C20.0603 9.49171 20.6569 9.91979 20.8481 10.3808V10.336C20.8515 10.1199 20.9397 9.91375 21.0938 9.76213C21.2479 9.6105 21.4554 9.52553 21.6716 9.52556C21.888 9.52776 22.0953 9.61318 22.2503 9.76409C22.4054 9.915 22.4963 10.1198 22.5043 10.336ZM20.9176 12.4837C20.9176 11.3028 20.1527 10.8985 19.5899 10.8985C18.9037 10.8985 18.2174 11.4382 18.2174 12.4837C18.2174 13.5292 18.9037 14.0816 19.5899 14.0816C20.1527 14.0862 20.9176 13.6764 20.9176 12.4837Z" fill="#A55954"/>
<path d="M27.9387 10.2573C27.9387 10.7073 27.5901 11.022 26.8919 11.022C26.0482 11.022 25.5303 11.6623 25.4965 12.0565V14.6551C25.481 14.8623 25.3878 15.0559 25.2354 15.1972C25.0831 15.3385 24.883 15.417 24.6752 15.417C24.4674 15.417 24.2673 15.3385 24.115 15.1972C23.9627 15.0559 23.8695 14.8623 23.854 14.6551V10.3561C23.8455 10.2431 23.8605 10.1297 23.898 10.0227C23.9354 9.91583 23.9945 9.8178 24.0716 9.73477C24.1487 9.65175 24.2421 9.58552 24.346 9.54023C24.4498 9.49494 24.5619 9.47156 24.6752 9.47156C24.7885 9.47156 24.9006 9.49494 25.0045 9.54023C25.1084 9.58552 25.2018 9.65175 25.2789 9.73477C25.3559 9.8178 25.415 9.91583 25.4525 10.0227C25.4899 10.1297 25.5049 10.2431 25.4965 10.3561V10.8061C25.5422 10.3899 26.2285 9.50178 27.1737 9.50178C27.6797 9.50361 27.9387 9.8521 27.9387 10.2573Z" fill="#A55954"/>
<path d="M34.2058 12.2257C34.2058 12.8779 33.8571 13.1029 33.1818 13.1029L30.0982 13.0581C30.2446 13.7551 30.7963 14.1374 31.5723 14.1374C31.9438 14.1374 32.0563 14.0816 32.383 13.9691C32.6081 13.8777 32.7765 13.778 32.9906 13.778C33.0644 13.7757 33.1379 13.7888 33.2064 13.8164C33.2748 13.844 33.3368 13.8855 33.3885 13.9383C33.4401 13.9911 33.4801 14.054 33.5062 14.1231C33.5322 14.1921 33.5436 14.2659 33.5396 14.3396C33.5396 14.5426 33.4609 14.7676 33.1461 15.0146C32.7527 15.2735 32.2119 15.4646 31.5037 15.4646C29.9838 15.4646 28.3861 14.5499 28.3861 12.5065C28.3861 10.4631 30.0854 9.48806 31.3682 9.48806C32.6511 9.48806 34.2058 10.5189 34.2058 12.2257ZM30.0982 11.9559H32.5852C32.4727 11.2132 31.9548 10.9205 31.3701 10.9205C30.7854 10.9205 30.1961 11.2132 30.0982 11.9559Z" fill="#A55954"/>
<path d="M39.1112 10.2912C39.2386 10.4382 39.3101 10.6254 39.3135 10.8198C39.3135 11.2241 39.0435 11.4382 38.683 11.4382C38.5535 11.4369 38.4258 11.4069 38.3092 11.3505C38.1926 11.294 38.0899 11.2124 38.0086 11.1116C37.9226 11.0103 37.8157 10.9287 37.6952 10.8725C37.5747 10.8163 37.4434 10.7868 37.3105 10.786C36.9509 10.786 36.7257 10.9689 36.7257 11.2241C36.7257 11.3366 36.7477 11.5617 37.2208 11.697L37.9071 11.8882C38.7626 12.1471 39.5386 12.5742 39.5386 13.5978C39.5386 14.8683 38.3682 15.4646 37.1979 15.4646C36.163 15.4646 35.6003 15.0265 35.2855 14.7C35.2178 14.6323 34.9369 14.3066 34.9369 13.9234C34.9335 13.8404 34.9476 13.7575 34.9782 13.6803C35.0088 13.603 35.0553 13.533 35.1146 13.4748C35.1739 13.4165 35.2447 13.3714 35.3225 13.3421C35.4003 13.3129 35.4834 13.3003 35.5664 13.3051C35.8931 13.3051 36.0843 13.5072 36.2307 13.6764C36.5684 14.0588 36.8831 14.1338 37.1979 14.1338C37.6929 14.1338 37.9071 13.9088 37.9071 13.6837C37.9071 13.5712 37.8622 13.3243 37.3333 13.1669L36.7477 12.984C35.6003 12.6575 35.1162 12.0391 35.1162 11.2287C35.1162 10.0478 36.1969 9.48531 37.2546 9.48531C37.9967 9.49171 38.7397 9.77344 39.1112 10.2912Z" fill="#A55954"/>
<path d="M46.0865 12.2257C46.0865 12.8779 45.7379 13.1029 45.0635 13.1029L41.9799 13.0581C42.1263 13.7551 42.678 14.1374 43.454 14.1374C43.8255 14.1374 43.938 14.0816 44.2638 13.9691C44.4889 13.8777 44.6582 13.778 44.8714 13.778C44.9451 13.7758 45.0186 13.789 45.087 13.8167C45.1554 13.8443 45.2173 13.8858 45.2689 13.9386C45.3205 13.9913 45.3606 14.0542 45.3867 14.1232C45.4127 14.1922 45.4242 14.2659 45.4204 14.3396C45.4204 14.5426 45.3417 14.7676 45.0269 15.0146C44.6325 15.2735 44.0927 15.4646 43.3799 15.4646C41.8609 15.4646 40.2633 14.5499 40.2633 12.5065C40.2633 10.4631 41.9625 9.48806 43.2454 9.48806C44.5282 9.48806 46.0865 10.5189 46.0865 12.2257ZM41.9799 11.9559H44.4706C44.358 11.2132 43.8401 10.9205 43.2554 10.9205C42.6707 10.9205 42.0814 11.2132 41.9799 11.9559Z" fill="#A55954"/>
<path d="M48.0328 15.4646C47.9255 15.4657 47.8191 15.4456 47.7195 15.4055C47.62 15.3654 47.5294 15.306 47.4529 15.2308C47.3764 15.1556 47.3155 15.066 47.2737 14.9672C47.2319 14.8685 47.21 14.7624 47.2093 14.6551V8.19834C47.2248 7.9912 47.318 7.79757 47.4703 7.65627C47.6226 7.51496 47.8227 7.43644 48.0305 7.43644C48.2383 7.43644 48.4384 7.51496 48.5907 7.65627C48.743 7.79757 48.8363 7.9912 48.8518 8.19834V14.6551C48.8501 14.8709 48.763 15.0772 48.6095 15.2289C48.456 15.3806 48.2487 15.4654 48.0328 15.4646Z" fill="#A55954"/>
<path d="M51.0259 15.4646C50.9186 15.4656 50.8122 15.4454 50.7128 15.4053C50.6133 15.3651 50.5227 15.3057 50.4463 15.2305C50.3698 15.1553 50.3089 15.0658 50.267 14.9671C50.2252 14.8684 50.2032 14.7624 50.2024 14.6551V8.19834C50.2024 7.98001 50.2891 7.77062 50.4436 7.61624C50.598 7.46185 50.8075 7.37512 51.0259 7.37512C51.2443 7.37512 51.4538 7.46185 51.6082 7.61624C51.7626 7.77062 51.8494 7.98001 51.8494 8.19834V14.6551C51.8486 14.7624 51.8266 14.8684 51.7848 14.9671C51.7429 15.0658 51.682 15.1553 51.6055 15.2305C51.529 15.3057 51.4385 15.3651 51.339 15.4053C51.2395 15.4454 51.1331 15.4656 51.0259 15.4646Z" fill="#A55954"/>
<path d="M21.1135 17.8053C21.2001 17.8213 21.2796 17.8642 21.3404 17.9279C23.262 19.4929 25.4095 20.4744 28.0476 20.4744C30.8421 20.4744 33.1471 19.4929 35.1903 17.8977C35.2532 17.8421 35.3334 17.8098 35.4173 17.8062C35.732 17.8062 35.9763 18.2362 35.9763 18.7886C35.9763 19.1545 35.8373 19.4628 35.6799 19.6118C33.4966 21.5757 31.0516 22.6184 28.0476 22.6184C25.2 22.6184 22.8776 21.5757 20.8518 19.6118C20.677 19.4582 20.5544 19.1545 20.5544 18.7886C20.5544 18.2654 20.7987 17.8053 21.1135 17.8053Z" fill="#A55954"/>
</svg>
